<?xml version="1.0" standalone="no"?>
<!DOCTYPE svg PUBLIC "-//W3C//DTD SVG 1.1//EN" "http://www.w3.org/Graphics/SVG/1.1/DTD/svg11.dtd">
<svg xmlns="http://www.w3.org/2000/svg" id="Capa_1" data-name="Capa 1" viewBox="0 0 1018.32 288.98" width="1018.3200073242188" height="288.9800109863281">
  <defs>
    <style>
      .cls-1 {
        fill-rule: evenodd;
      }

      .cls-1, .cls-2 {
        fill: #ececeb;
        stroke: #fff;
        stroke-miterlimit: 10;
      }
    </style>
  </defs>
  <path class="cls-1" d="M87.5,15.57c-18.01,1.51-34.82,6.46-47.8,14.09-3.12,1.83-9.15,6.81-13.4,11.06-12.71,12.71-18.76,27.81-18.79,46.86-.02,11.11,2.47,22.31,6.71,30.24,3.94,7.35,15.44,18.35,24.66,23.58,10.37,5.88,30.3,12.65,57.63,19.57,37.48,9.49,48.44,13.49,60.63,22.12,10.47,7.42,15.64,15.63,17.54,27.88,2.41,15.52-2.25,29.48-13.41,40.16-10.83,10.37-21.31,15.02-40.11,17.81-38.93,5.78-82.22-5.17-106.4-26.9-2.78-2.5-5.29-4.55-5.57-4.55-.67,0-8.69,12.7-8.69,13.76,0,1.44,9.33,9.89,15.5,14.03,22.74,15.27,51.17,23.23,82.82,23.19,44.6-.06,76.79-15.32,89.9-42.59,5.06-10.52,6.7-17.7,6.75-29.43.06-16.53-4.24-28.24-14.18-38.63-6.88-7.18-15.52-13.71-23.28-17.59-7.15-3.57-26.65-9.73-51.5-16.26-42.36-11.13-53.84-15.81-65.52-26.71-8.26-7.7-10.87-12.68-12.65-24.12-3.28-21.11,7.58-41.19,27.85-51.5,7.14-3.63,20.46-6.94,32.85-8.16,28.39-2.8,60.33,4.6,84.06,19.46l4.09,2.56,3.78-8.06c4.43-9.44,5.08-8.28-8.65-15.45-18.01-9.41-34.57-14.3-55.67-16.45-11.39-1.16-15.07-1.16-29.14.02h0Z"/>
  <path class="cls-1" d="M205.55,19.65c-.26.69-.36,61.33-.22,134.75l.26,133.5,9.72.29c9.41.28,9.74.21,10.28-2,.31-1.26.44-52.12.28-113.04-.15-60.91-.05-110.75.24-110.75.48,0,4.33,6.16,8.73,14,1.08,1.93,8.4,14.52,16.26,28s15.41,26.52,16.78,29c1.36,2.48,2.82,4.95,3.24,5.5.41.55,1.67,2.64,2.79,4.64,1.11,2,11.44,19.78,22.95,39.5s25.31,43.4,30.67,52.61c10.17,17.49,10.95,18.29,17.19,17.57,2.49-.28,3.82-1.91,10.06-12.33,3.96-6.6,7.77-13.12,8.48-14.5s2.25-4.08,3.43-6c1.18-1.93,7.44-12.73,13.92-24,6.48-11.28,14.57-25.23,17.97-31s7.33-12.52,8.74-15c3.37-5.92,14.94-25.95,22.24-38.5,3.2-5.5,8.81-15.18,12.48-21.5,3.66-6.32,9.11-15.7,12.1-20.82l5.45-9.32.25,114.11.26,114.11,10.24-.29,10.25-.28-.37-134c-.2-73.7-.57-134.34-.81-134.75-.24-.41-3.99-.75-8.34-.75h-7.9l-6.91,11.75c-3.8,6.46-11.32,19.4-16.72,28.75s-14.38,24.88-19.95,34.5-14.42,24.93-19.67,34c-14.98,25.9-20.62,35.64-27.79,48-3.67,6.32-11.07,19.15-16.46,28.5-13.65,23.71-12.5,22.07-14.02,19.85-.7-1.02-2.5-4.1-4.02-6.85-1.51-2.75-6.02-10.62-10.02-17.5-15.41-26.5-25.47-43.85-27.4-47.29-1.11-1.97-3.16-5.4-4.57-7.63-1.4-2.23-2.55-4.24-2.55-4.47s-4.2-7.56-9.33-16.27c-5.13-8.71-10.58-18.09-12.11-20.84-2.54-4.54-11.75-20.45-19.98-34.5-1.78-3.03-9.04-15.51-16.15-27.75l-12.92-22.25h-8.29c-5.71,0-8.43.39-8.76,1.25h0Z"/>
  <path class="cls-2" d="M813.09,288.09c50.12-43.01,98.31-84.36,145.54-124.89-17.79,3.95-36.13,9.51-54.88,11.86-37.07,4.65-73.6,2.9-105.05-20.94-35.44-26.87-43.11-82.88-16.01-114.77,15.44-18.17,36.32-27.64,58.84-32.66,42.68-9.52,85.17-8.98,126.16,8.16,39.92,16.69,56.2,47.98,48.11,90.65-5.69,30.03-19.65,55.04-43.28,74.97-38.29,32.29-76.17,65.06-113.83,98.09-7.79,6.83-15.43,11-25.97,9.66-5.63-.71-11.42-.13-19.64-.13h0ZM891.08,21.95c-18.85-.61-37.22,1.91-54.89,8.5-23.05,8.6-41.05,22.41-42.69,49.03-1.73,28.19,8.87,51.75,35.07,63.89,42.85,19.87,86.95,18.29,129.88-.18,26.01-11.19,32.78-34.97,32.56-60.84-.19-23.04-14.77-37.05-33.7-46.92-20.69-10.79-43.09-14.34-66.23-13.48h0Z"/>
  <path class="cls-2" d="M500.61,288.46c-5.83-16.41,2.68-24.35,14.58-32.4,45.82-31,91.24-62.62,136.41-94.56,19.25-13.61,35.5-30.34,45.5-52.29,14.24-31.25,3.42-61.84-27.8-75.68-9.5-4.21-20.04-6.86-30.37-8.23-40.62-5.4-79.73,1.02-117.37,16.94-1.74.74-3.54,1.36-6.46,2.47,0-7.13-.32-13.45.2-19.71.15-1.86,2.32-4.5,4.14-5.14,50.57-17.8,101.96-24.84,154.7-10.6,57.64,15.55,64.17,70.94,47.86,108.35-12.04,27.62-34.11,46.4-58.29,62.72-40.56,27.38-81.52,54.16-122.31,81.2-2,1.33-3.92,2.78-8.06,5.73h205.92v21.21h-238.65,0Z"/>
</svg>